<svg xmlns="http://www.w3.org/2000/svg" viewBox="0 0 64 64" role="img" aria-label="Alma Balabaqshasy">
  <defs>
    <radialGradient id="apple" cx="38%" cy="32%" r="68%">
      <stop offset="0%" stop-color="#FF6B6B"/>
      <stop offset="45%" stop-color="#E52228"/>
      <stop offset="100%" stop-color="#9A1020"/>
    </radialGradient>
    <radialGradient id="shine" cx="50%" cy="50%" r="50%">
      <stop offset="0%" stop-color="#fff" stop-opacity=".7"/>
      <stop offset="100%" stop-color="#fff" stop-opacity="0"/>
    </radialGradient>
  </defs>
  <!-- leaf -->
  <path d="M34 12c-3.5-6-10-7.5-11-3.5-1 4 5.5 5.5 11 3.5z" fill="#55C97A" stroke="#33A85A" stroke-width="1"/>
  <!-- stem -->
  <path d="M33.5 12c1-3.5 2-7 2.5-9.5" fill="none" stroke="#7B4A2B" stroke-width="2.2" stroke-linecap="round"/>
  <!-- body -->
  <ellipse cx="32" cy="38" rx="20" ry="21" fill="url(#apple)" stroke="#B51822" stroke-width="1.2"/>
  <!-- shine -->
  <ellipse cx="24" cy="28" rx="5" ry="7" fill="url(#shine)" transform="rotate(-15 24 28)"/>
  <!-- eyes -->
  <ellipse cx="27" cy="36" rx="3.2" ry="3.8" fill="#fff"/>
  <ellipse cx="37" cy="35" rx="3" ry="3.5" fill="#fff"/>
  <ellipse cx="28" cy="37.2" rx="1.8" ry="2.1" fill="#2C1106"/>
  <ellipse cx="38" cy="36.2" rx="1.7" ry="2" fill="#2C1106"/>
  <circle cx="28.6" cy="36.4" r=".6" fill="#fff"/>
  <circle cx="38.5" cy="35.5" r=".55" fill="#fff"/>
  <!-- smile -->
  <path d="M25 43c3 4.5 11 4.5 14 1" fill="none" stroke="#1a1a2e" stroke-width="1.6" stroke-linecap="round"/>
  <!-- cheeks -->
  <ellipse cx="21" cy="42" rx="3.5" ry="2" fill="#FF8282" opacity=".4"/>
  <ellipse cx="42" cy="41" rx="3.2" ry="1.8" fill="#FF8282" opacity=".4"/>
</svg>
